<svg xmlns="http://www.w3.org/2000/svg" version="1.1" xmlns:xlink="http://www.w3.org/1999/xlink" xmlns:svgjs="http://svgjs.dev/svgjs" width="1000" height="1000" viewBox="0 0 1000 1000"><rect width="1000" height="1000" fill="#ffffff"></rect><g transform="matrix(0.7,0,0,0.7,149.57705989927285,291.31950643598475)"><svg viewBox="0 0 396 236" data-background-color="#ffffff" preserveAspectRatio="xMidYMid meet" height="595" width="1000" xmlns="http://www.w3.org/2000/svg" xmlns:xlink="http://www.w3.org/1999/xlink"><g id="tight-bounds" transform="matrix(1,0,0,1,0.24001445646183583,0.24392912630875685)"><svg viewBox="0 0 395.52 235.5121417473825" height="235.5121417473825" width="395.52"><g><svg viewBox="0 0 395.52 235.5121417473825" height="235.5121417473825" width="395.52"><g transform="matrix(1,0,0,1,0,120.08511748291808)"><svg viewBox="0 0 395.52 115.42702426446442" height="115.42702426446442" width="395.52"><g id="textblocktransform"><svg viewBox="0 0 395.52 115.42702426446442" height="115.42702426446442" width="395.52" id="textblock"><g><svg viewBox="0 0 395.52 67.76237782184694" height="67.76237782184694" width="395.52"><g transform="matrix(1,0,0,1,0,0)"><svg width="395.52" viewBox="2.578019857406616 -16.867740631103516 251.91159057617188 43.15869140625" height="67.76237782184694" data-palette-color="#1c4b82"><path d="M23.457 23.054c-0.202-0.043-2.236-1.336-6.102-3.879-3.861-2.536-6.213-4.083-7.056-4.641v0c-1.095-0.755-1.833-1.247-2.213-1.478v0c-2.429-1.635-4.055-3.782-4.879-6.442-0.824-2.66-0.839-5.875-0.045-9.646v0c1.042-4.952 2.942-8.483 5.702-10.593 2.762-2.117 6.253-2.731 10.474-1.843v0c4.241 0.892 7.201 2.867 8.881 5.924 1.681 3.051 2.003 7.046 0.963 11.985v0c-0.84 3.993-2.24 7.057-4.202 9.192-1.963 2.142-4.399 3.295-7.308 3.46v0l-0.035 0.166 7.754 4.38c0.375 0.195 0.53 0.442 0.468 0.742v0c-0.044 0.209-0.207 0.549-0.491 1.021-0.282 0.465-0.599 0.872-0.952 1.221-0.353 0.348-0.672 0.492-0.959 0.431zM13.661 11.521c2.949 0.62 5.436 0.084 7.461-1.609 2.026-1.699 3.441-4.457 4.244-8.273v0c0.535-2.544 0.629-4.786 0.28-6.727-0.342-1.938-1.103-3.516-2.285-4.731-1.182-1.216-2.748-2.029-4.698-2.44v0c-1.931-0.406-3.676-0.289-5.234 0.351-1.565 0.638-2.897 1.775-3.998 3.41-1.094 1.637-1.908 3.727-2.443 6.271v0c-0.805 3.83-0.626 6.926 0.539 9.29 1.166 2.357 3.211 3.843 6.134 4.458zM44.286 20.172c-2.477-0.384-4.529-1.096-6.155-2.138-1.619-1.047-2.762-2.374-3.431-3.982-0.668-1.608-0.844-3.436-0.527-5.485v0l3.008-19.418c0.099-0.639 0.715-0.871 1.848-0.696v0l0.336 0.052c1.133 0.176 1.65 0.583 1.552 1.222v0l-3.031 19.567c-0.193 1.245-0.019 2.409 0.521 3.491 0.534 1.081 1.359 1.985 2.475 2.711 1.114 0.733 2.416 1.214 3.904 1.444v0c1.502 0.233 2.892 0.165 4.171-0.204 1.285-0.368 2.342-0.986 3.171-1.856 0.836-0.869 1.349-1.916 1.539-3.141v0l3.031-19.567c0.099-0.639 0.715-0.871 1.849-0.695v0l0.355 0.055c1.12 0.173 1.63 0.58 1.532 1.219v0l-3.008 19.418c-0.317 2.049-1.038 3.739-2.162 5.069-1.124 1.33-2.615 2.25-4.474 2.757-1.865 0.5-4.033 0.559-6.504 0.177zM65.812 22.9c-1.159-0.135-1.702-0.514-1.629-1.136v0l3.298-28.268c0.075-0.642 0.692-0.896 1.85-0.761v0l0.338 0.039c1.139 0.133 1.671 0.52 1.596 1.163v0l-3.298 28.268c-0.073 0.622-0.678 0.867-1.817 0.735v0zM88.769 25.006c-4.706-0.364-8.093-1.872-10.161-4.526-2.068-2.661-2.899-6.61-2.495-11.847v0c0.789-10.21 5.819-14.956 15.092-14.24v0c1.356 0.105 2.661 0.349 3.915 0.734 1.248 0.377 2.251 0.806 3.01 1.285 0.759 0.48 1.123 0.916 1.092 1.308v0c-0.018 0.239-0.126 0.555-0.324 0.948-0.204 0.385-0.43 0.722-0.68 1.011-0.25 0.288-0.464 0.426-0.643 0.411v0c-0.08-0.006-0.294-0.126-0.644-0.36v0c-0.809-0.517-1.661-0.964-2.555-1.341-0.894-0.377-2.002-0.616-3.324-0.718v0c-3.47-0.268-6.097 0.499-7.881 2.3-1.784 1.795-2.838 4.799-3.164 9.013v0c-0.317 4.108 0.26 7.195 1.732 9.261 1.471 2.073 3.899 3.24 7.282 3.501v0c1.416 0.109 2.645 0.034 3.689-0.227 1.043-0.26 2.053-0.604 3.028-1.029v0c0.471-0.211 0.753-0.313 0.846-0.306v0c0.179 0.014 0.374 0.183 0.583 0.506 0.209 0.324 0.389 0.682 0.539 1.075 0.15 0.399 0.218 0.679 0.206 0.838v0c-0.031 0.399-0.474 0.813-1.33 1.242-0.849 0.429-1.968 0.761-3.357 0.994-1.389 0.234-2.874 0.289-4.456 0.167zM105.562 25.75c-1.166-0.036-1.74-0.367-1.721-0.993v0l0.87-28.446c0.02-0.646 0.613-0.952 1.778-0.917v0l0.34 0.011c1.146 0.035 1.709 0.376 1.69 1.022v0l-0.403 13.194 0.17 0.005 11.008-13.21c0.2-0.201 0.518-0.348 0.954-0.441 0.43-0.094 0.901-0.133 1.414-0.117v0l0.42 0.013c0.48 0.015 0.848 0.083 1.104 0.204 0.256 0.121 0.382 0.262 0.378 0.421v0c-0.008 0.26-0.153 0.549-0.437 0.868v0l-11.175 13.104 12.61 14.582c0.252 0.281 0.375 0.512 0.369 0.692v0c-0.007 0.24-0.155 0.395-0.444 0.467-0.282 0.071-0.773 0.096-1.473 0.075v0l-0.53-0.017c-0.613-0.019-1.102-0.064-1.467-0.134-0.358-0.078-0.646-0.243-0.865-0.497v0l-11.92-14.241-0.17-0.005-0.412 13.484c-0.019 0.626-0.602 0.922-1.748 0.887v0zM130.635 26.158c-0.613 0.01-1.061-0.06-1.343-0.208-0.276-0.149-0.416-0.383-0.422-0.704v0l-0.458-28.456c-0.01-0.647 0.568-0.979 1.734-0.998v0l0.9-0.015c0.447-0.007 0.804 0.054 1.073 0.183 0.269 0.122 0.512 0.328 0.73 0.618v0l14.113 20.566 1.319 2.399-0.371-23.067c-0.01-0.647 0.551-0.979 1.684-0.997v0l0.34-0.006c1.133-0.018 1.705 0.296 1.715 0.943v0l0.458 28.456c0.005 0.32-0.128 0.559-0.398 0.717-0.271 0.158-0.7 0.241-1.286 0.25v0l-0.87 0.014c-0.407 0.007-0.731-0.035-0.972-0.124-0.248-0.096-0.437-0.246-0.568-0.451v0l-14.553-21.218-1.206-2.211 0.376 23.337c0.01 0.627-0.558 0.949-1.705 0.967v0zM172.375 24.494c-4.301 0.323-7.68-0.737-10.137-3.18-2.456-2.443-3.874-6.181-4.251-11.214v0c-0.376-5.013 0.466-8.89 2.526-11.631 2.054-2.741 5.241-4.274 9.563-4.599v0c4.341-0.326 7.735 0.713 10.181 3.116 2.453 2.403 3.868 6.111 4.245 11.124v0c0.378 5.033-0.465 8.94-2.53 11.722-2.058 2.782-5.257 4.336-9.598 4.662zM172.13 21.233c3.031-0.228 5.277-1.439 6.737-3.635 1.46-2.195 2.042-5.261 1.746-9.196v0c-0.295-3.929-1.323-6.847-3.084-8.754-1.754-1.901-4.157-2.737-7.208-2.507v0c-3.031 0.228-5.269 1.412-6.713 3.552-1.443 2.147-2.017 5.186-1.722 9.115v0c0.297 3.956 1.321 6.904 3.07 8.845 1.751 1.948 4.142 2.808 7.174 2.58zM200.339 21.449c-0.595 0.076-1.038 0.056-1.328-0.062-0.291-0.117-0.456-0.335-0.497-0.652v0l-3.31-25.819-8.233 1.056c-0.304 0.039-0.533-0.039-0.685-0.235-0.159-0.188-0.266-0.5-0.322-0.937v0l-0.089-0.694c-0.058-0.45-0.033-0.782 0.074-0.997 0.099-0.221 0.301-0.351 0.605-0.391v0l20.066-2.572c0.304-0.039 0.536 0.036 0.694 0.223 0.151 0.182 0.255 0.498 0.313 0.948v0l0.089 0.694c0.056 0.436 0.034 0.765-0.065 0.987-0.105 0.229-0.31 0.362-0.614 0.401v0l-8.054 1.033 3.31 25.818c0.08 0.622-0.459 1.007-1.616 1.155v0zM217.999 18.856c-0.447 0.075-0.79 0.024-1.029-0.153-0.245-0.169-0.403-0.47-0.476-0.903v0l-4.56-27.221c-0.075-0.447-0.024-0.787 0.154-1.02 0.17-0.238 0.478-0.394 0.925-0.469v0l14.834-2.484c0.302-0.051 0.539 0.008 0.708 0.175 0.171 0.174 0.295 0.491 0.373 0.952v0l0.115 0.69c0.073 0.434 0.057 0.764-0.047 0.991-0.103 0.234-0.305 0.376-0.608 0.427v0l-12.367 2.071 1.622 9.685 11.105-1.86c0.302-0.051 0.537 0.018 0.704 0.207 0.172 0.181 0.296 0.495 0.371 0.941v0l0.109 0.651c0.075 0.447 0.06 0.781-0.045 1.002-0.098 0.219-0.299 0.354-0.602 0.405v0l-11.105 1.86 1.744 10.414 12.417-2.079c0.302-0.051 0.539 0.011 0.711 0.185 0.165 0.175 0.284 0.486 0.359 0.933v0l0.115 0.691c0.073 0.434 0.06 0.764-0.037 0.99-0.103 0.234-0.305 0.376-0.608 0.426v0zM246.636 13.692c-1.552 0.33-3.032 0.467-4.442 0.412-1.409-0.055-2.562-0.239-3.46-0.552-0.905-0.312-1.399-0.667-1.484-1.065v0c-0.047-0.222-0.018-0.531 0.089-0.929 0.105-0.404 0.244-0.774 0.418-1.111 0.18-0.338 0.339-0.522 0.476-0.551v0c0.13-0.028 0.435 0.041 0.912 0.205v0c1.093 0.299 2.157 0.513 3.193 0.64 1.036 0.127 2.242 0.045 3.618-0.248v0c1.076-0.229 1.988-0.637 2.735-1.225 0.754-0.59 1.282-1.312 1.584-2.167 0.31-0.85 0.361-1.764 0.153-2.742v0c-0.222-1.043-0.687-1.851-1.395-2.423-0.706-0.565-1.504-0.965-2.391-1.199-0.882-0.235-2.146-0.491-3.793-0.768v0c-1.778-0.283-3.204-0.597-4.279-0.941-1.075-0.344-2.059-0.966-2.953-1.867-0.893-0.901-1.523-2.212-1.889-3.933v0c-0.32-1.506-0.219-2.939 0.303-4.297 0.522-1.358 1.424-2.521 2.704-3.488 1.28-0.967 2.846-1.648 4.698-2.042v0c0.841-0.179 1.824-0.269 2.948-0.269 1.126 0.006 2.112 0.124 2.958 0.353 0.854 0.234 1.332 0.589 1.433 1.065v0c0.043 0.202 0.018 0.501-0.075 0.895-0.088 0.387-0.213 0.747-0.374 1.082-0.161 0.334-0.303 0.514-0.426 0.54v0c-0.143 0.03-0.456-0.029-0.938-0.179v0c-0.791-0.227-1.56-0.381-2.306-0.46-0.74-0.081-1.608-0.016-2.606 0.196v0c-1.63 0.347-2.859 1.044-3.686 2.092-0.825 1.055-1.079 2.332-0.76 3.832v0c0.193 0.906 0.572 1.603 1.14 2.089 0.568 0.493 1.228 0.84 1.979 1.041 0.753 0.208 1.788 0.411 3.105 0.608v0c0.082 0.003 0.279 0.029 0.589 0.079v0c1.813 0.289 3.319 0.623 4.517 1.002 1.2 0.386 2.295 1.066 3.286 2.042 0.993 0.982 1.677 2.359 2.055 4.133v0c0.354 1.663 0.277 3.192-0.231 4.588-0.501 1.395-1.389 2.572-2.664 3.531-1.283 0.954-2.863 1.631-4.741 2.031z" opacity="1" transform="matrix(1,0,0,1,0,0)" fill="#000000" class="undefined-text-0" data-fill-palette-color="primary" id="text-0"></path></svg></g></svg></g><g transform="matrix(1,0,0,1,118.31980799999998,91.05284391411513)"><svg viewBox="0 0 158.88038400000002 24.374180350349278" height="24.374180350349278" width="158.88038400000002"><g transform="matrix(1,0,0,1,0,0)"><svg width="158.88038400000002" viewBox="0.12000000476837158 -40.15999984741211 363.44000244140625 55.76000213623047" height="24.374180350349278" data-palette-color="#1c4b82"><path d="M12.99-0.78L12.99-0.2Q12.99 0 12.79 0L12.79 0 0.32 0Q0.12 0 0.12-0.2L0.12-0.2 0.12-0.78Q0.12-0.98 0.44-0.98L0.44-0.98Q3.78-1.12 4.96-4.54L4.96-4.54 14.92-33.37Q14.94-33.42 14.94-33.5L14.94-33.5 14.67-34.3Q14.67-34.42 14.77-34.42L14.77-34.42 19.65-34.42Q19.7-34.4 19.79-34.38 19.87-34.35 19.92-34.23L19.92-34.23 30.25-5.25Q30.59-4.59 30.8-4.05 31.01-3.52 31.27-3.08L31.27-3.08Q31.86-2.08 33.2-1.54L33.2-1.54Q34.33-0.98 35.25-0.98L35.25-0.98Q35.45-0.98 35.45-0.76L35.45-0.76 35.45-0.2Q35.45 0 35.25 0L35.25 0 20.31 0Q20.12 0 20.12-0.2L20.12-0.2 20.12-0.78Q20.12-0.98 21.02-1.03 21.92-1.07 22.51-1.12L22.51-1.12Q25.9-1.49 25.9-3.42L25.9-3.42Q25.9-3.56 25.85-3.76L25.85-3.76 22.17-14.16Q22.14-14.21 22.07-14.38L22.07-14.38Q21.78-15.21 21.04-15.21L21.04-15.21 12.38-15.21Q11.65-15.21 11.23-14.4L11.23-14.4Q11.16-14.23 11.16-14.21L11.16-14.21 7.5-3.49 7.5-3.27Q7.5-2.64 8.15-2.12L8.15-2.12Q9.64-0.98 12.16-0.98L12.16-0.98 12.79-0.98Q12.99-0.98 12.99-0.78L12.99-0.78ZM13.01-17.92L20.21-17.92Q20.65-17.92 20.65-18.29L20.65-18.29Q20.65-18.48 20.56-18.73L20.56-18.73 16.92-28.74Q16.67-29.39 16.55-29.39L16.55-29.39Q16.43-29.39 16.16-28.71L16.16-28.71 12.74-18.73Q12.65-18.48 12.65-18.2 12.65-17.92 13.01-17.92L13.01-17.92ZM65.77-21.62Q66.84-21.24 67.08-21.24 67.33-21.24 67.39-21.25 67.45-21.26 67.55-21.56L67.55-21.56 67.55-34.16Q67.55-35.18 66.43-35.57L66.43-35.57Q65.94-35.74 65.38-35.85 64.81-35.96 64.48-36.06 64.16-36.16 64.07-36.24 63.98-36.33 63.98-36.61 63.98-36.89 64.35-37.08L64.35-37.08 70.58-40.01Q70.87-40.16 70.94-40.16L70.94-40.16Q71.36-40.16 71.36-39.58L71.36-39.58 71.36-4.81Q71.48-3.74 71.97-3.27 72.46-2.81 73.55-2.81L73.55-2.81 74.97-2.91Q75.12-2.91 75.12-2.62 75.12-2.34 74.75-2.17L74.75-2.17 68.26 0.51Q67.96 0.66 67.76 0.66 67.55 0.66 67.55 0.05L67.55 0.05 67.55-2.17Q67.55-2.42 67.43-2.42L67.43-2.42Q67.26-2.42 65.4-1.32L65.4-1.32Q59.71 2.05 55.81-0.32L55.81-0.32Q52.68-2.22 51.58-6.35L51.58-6.35Q51.07-8.28 51.07-10.44 51.07-12.6 51.96-14.73 52.85-16.87 54.41-18.48L54.41-18.48Q57.86-22 62.71-22L62.71-22Q64.69-22 65.77-21.62ZM54.76-11.15Q54.76-7.45 56.81-4.68 58.86-1.9 62.52-1.9L62.52-1.9Q64.13-1.9 65.84-2.7 67.55-3.49 67.55-3.91L67.55-3.91 67.55-16.5Q67.55-16.97 66.91-17.6L66.91-17.6Q64.96-20.29 61.73-20.29 58.49-20.29 56.62-17.57 54.76-14.84 54.76-11.15ZM88.2 0L77.31 0Q77.07-0.05 77.07-0.34L77.07-0.34Q77.07-0.78 78.22-0.93L78.22-0.93Q80.85-1.32 80.85-3.71L80.85-3.71 80.85-16.63Q80.85-17.65 79.73-18.04L79.73-18.04Q79.24-18.21 78.68-18.32 78.12-18.43 77.79-18.53 77.46-18.63 77.37-18.71 77.29-18.8 77.29-19.08 77.29-19.36 77.65-19.56L77.65-19.56 83.88-22.49Q84.17-22.63 84.25-22.63L84.25-22.63Q84.66-22.63 84.66-22.05L84.66-22.05 84.66-3.71Q84.66-1.32 87.3-0.93L87.3-0.93Q88.44-0.78 88.44-0.42 88.44-0.05 88.2 0L88.2 0ZM82.4-29.49Q81.39-29.49 80.62-30.13 79.85-30.76 79.85-31.9 79.85-33.03 80.58-33.69 81.32-34.35 82.33-34.35 83.34-34.35 84.04-33.57 84.73-32.79 84.73-31.88 84.73-30.98 84.07-30.24 83.42-29.49 82.4-29.49ZM109.66-20.29L109.66-20.29Q109.66-20.29 116.2-20.58L116.2-20.58Q116.76-20.58 116.93-20.46 117.1-20.34 117.3-19.62 117.49-18.9 117.49-18.26 117.49-17.63 117.37-17.53 117.25-17.43 116.88-17.43L116.88-17.43 111.46-17.43Q111.61-17.16 111.78-16.87 111.95-16.58 112.22-15.89 112.49-15.21 112.49-13.78 112.49-12.35 111.79-10.8 111.1-9.25 109.76-8.06L109.76-8.06Q106.78-5.37 102.04-5.37L102.04-5.37Q100.8-5.37 99.31-5.83L99.31-5.83Q98.94-5.44 98.33-5.11 97.72-4.79 97.13-4.44L97.13-4.44Q95.67-3.61 95.67-2.78L95.67-2.78Q95.67-0.71 102.55-0.66 109.44-0.61 111.6-0.21 113.76 0.2 114.96 1.39L114.96 1.39Q116.84 3.27 116.84 5.69L116.84 5.69Q116.84 7.76 115.05 9.96L115.05 9.96Q111.95 13.84 105.58 15.14L105.58 15.14Q103.31 15.6 100.77 15.6L100.77 15.6Q96.16 15.6 93.76 13.93 91.37 12.26 91.37 9.89L91.37 9.89Q91.37 8.59 91.98 7.75 92.59 6.91 93.53 6.16 94.47 5.42 95.6 4.6 96.72 3.78 97.74 2.51L97.74 2.51Q95.4 2.32 93.73 1.03 92.06-0.27 92.06-1.51 92.06-2.76 92.71-3.36 93.37-3.96 94.33-4.38 95.28-4.81 96.33-5.18 97.38-5.54 98.16-6.13L98.16-6.13Q95.42-7.2 93.94-9.09 92.45-10.99 92.45-13.23L92.45-13.23Q92.45-17.41 95.49-20.04 98.53-22.68 102.82-22.68 107.12-22.68 109.66-20.29ZM96.39 5.18Q95.82 5.74 95.45 6.37 95.08 7.01 95.08 7.97 95.08 8.94 95.78 10 96.47 11.06 97.67 11.91L97.67 11.91Q100.31 13.87 104.02 13.87 107.73 13.87 110.74 11.71 113.76 9.55 113.76 6.97 113.76 4.39 111.27 3.52L111.27 3.52Q110.1 3.13 105.24 3.03 100.38 2.93 98.94 2.76L98.94 2.76Q98.31 3.49 97.63 4.05 96.96 4.61 96.39 5.18ZM108.49-13.79Q108.49-17.24 106.76-19.4 105.04-21.56 102.21-21.56L102.21-21.56Q98.55-21.56 97.04-18.12L97.04-18.12Q96.45-16.8 96.45-15.09L96.45-15.09Q96.45-11.6 97.89-9.28L97.89-9.28Q99.65-6.49 102.5-6.49 105.36-6.49 106.92-8.42 108.49-10.35 108.49-13.79ZM130.29 0L119.4 0Q119.15-0.05 119.15-0.34L119.15-0.34Q119.15-0.78 120.3-0.93L120.3-0.93Q122.94-1.32 122.94-3.71L122.94-3.71 122.94-16.63Q122.94-17.65 121.81-18.04L121.81-18.04Q121.33-18.21 120.76-18.32 120.2-18.43 119.87-18.53 119.54-18.63 119.46-18.71 119.37-18.8 119.37-19.08 119.37-19.36 119.74-19.56L119.74-19.56 125.96-22.49Q126.26-22.63 126.33-22.63L126.33-22.63Q126.75-22.63 126.75-22.05L126.75-22.05 126.75-3.71Q126.75-1.32 129.38-0.93L129.38-0.93Q130.53-0.78 130.53-0.42 130.53-0.05 130.29 0L130.29 0ZM124.49-29.49Q123.47-29.49 122.7-30.13 121.94-30.76 121.94-31.9 121.94-33.03 122.67-33.69 123.4-34.35 124.41-34.35 125.43-34.35 126.12-33.57 126.82-32.79 126.82-31.88 126.82-30.98 126.16-30.24 125.5-29.49 124.49-29.49ZM146.74-18.77L139.39-18.77Q139.24-18.77 139.24-18.55L139.24-18.55 139.24-5.08Q139.24-3.61 139.89-2.78 140.54-1.95 141.54-1.95 142.54-1.95 143.28-2.28 144.03-2.61 144.58-3 145.13-3.39 145.57-3.72 146.01-4.05 146.35-4.05 146.69-4.05 146.69-3.88L146.69-3.88Q146.69-3.3 146.57-3.13L146.57-3.13Q143.64 0.66 140.92 0.66 138.19 0.66 136.81-1.06 135.43-2.78 135.43-5.18L135.43-5.18 135.43-18.77 133.6-18.77Q132.92-18.77 132.88-19.21 132.85-19.65 133.02-19.78L133.02-19.78Q134.31-20.61 136.58-22.75L136.58-22.75Q136.83-23.02 137.24-23.56 137.66-24.1 138.45-25.02 139.24-25.95 139.66-25.95 140.07-25.95 140.07-25.61L140.07-25.61Q140.07-25.56 139.24-22.41L139.24-22.41Q139.24-21.97 139.63-21.95L139.63-21.95 145.86-21.95Q146.93-21.95 146.93-18.92L146.93-18.92Q146.93-18.77 146.74-18.77L146.74-18.77ZM164.34-4.03Q164.34-3.39 164.94-3.02 165.53-2.64 166.32-2.64 167.1-2.64 167.62-3.04 168.15-3.44 168.34-3.44 168.54-3.44 168.54-2.92 168.54-2.39 168.05-2.03L168.05-2.03Q164.39 0.66 163.09 0.66L163.09 0.66Q161.53 0.66 160.55-2.59L160.55-2.59Q160.48-2.83 160.43-2.81L160.43-2.81Q157.4-0.54 156.62-0.07L156.62-0.07Q154.62 1.07 152.61 0.29 150.59-0.49 149.69-2.29L149.69-2.29Q149.25-3.22 149.25-4.27L149.25-4.27Q149.25-6.35 150.79-7.57 152.33-8.79 156.65-9.91L156.65-9.91Q158.11-10.3 159.26-10.91 160.41-11.52 160.47-11.69 160.53-11.87 160.53-12.01L160.53-12.01 160.53-16.7Q160.53-19.46 158.38-20.58L158.38-20.58Q157.67-20.95 156.68-20.95 155.7-20.95 154.68-20.17 153.67-19.38 153.67-17.94L153.67-17.94 153.79-16.99Q153.64-16.7 152.03-16.02 150.42-15.33 150.18-15.28L150.18-15.28Q149.79-15.28 149.79-16.22 149.79-17.16 150.35-18.31 150.91-19.46 151.94-20.41L151.94-20.41Q154.33-22.63 157.4-22.63 160.48-22.63 162.41-20.94 164.34-19.24 164.34-16.89L164.34-16.89 164.34-4.03ZM153.08-4.74Q153.08-3.56 153.99-2.7 154.89-1.83 156.05-1.83 157.21-1.83 158.87-2.82 160.53-3.81 160.53-4.86L160.53-4.86 160.53-9.81Q160.53-10.08 160.41-10.08 160.29-10.08 160.24-10.06L160.24-10.06 154.57-7.42Q153.69-6.79 153.39-6.35 153.08-5.91 153.08-4.74ZM179.86-0.93L179.86-0.93Q181.01-0.78 181.01-0.34L181.01-0.34Q181.01-0.05 180.77 0L180.77 0 169.88 0Q169.63-0.05 169.63-0.34L169.63-0.34Q169.63-0.78 170.78-0.93L170.78-0.93Q173.42-1.32 173.42-3.71L173.42-3.71 173.42-34.16Q173.42-35.18 172.29-35.57L172.29-35.57Q171.81-35.74 171.24-35.85 170.68-35.96 170.35-36.06 170.02-36.16 169.94-36.24 169.85-36.33 169.85-36.61 169.85-36.89 170.22-37.08L170.22-37.08 176.44-40.01Q176.74-40.16 176.81-40.16L176.81-40.16Q177.23-40.16 177.23-39.58L177.23-39.58 177.23-3.71Q177.23-1.32 179.86-0.93ZM214.92-7.69L214.92-7.69 214.87-12.84Q214.87-15.99 214.33-17.26 213.79-18.53 212.96-19.18 212.13-19.82 210.73-19.82 209.33-19.82 204.78-17.63L204.78-17.63Q204.17-17.26 204.15-16.94L204.15-16.94 204.15-3.81Q204.15-1.34 206.79-0.98L206.79-0.98Q207.93-0.81 207.93-0.43 207.93-0.05 207.69 0L207.69 0 196.8 0Q196.56-0.05 196.56-0.34L196.56-0.34Q196.56-0.81 197.7-0.98L197.7-0.98Q200.34-1.34 200.34-3.81L200.34-3.81 200.34-17.82Q200.34-18.85 199.22-19.24L199.22-19.24Q198.73-19.41 198.17-19.52 197.61-19.63 197.28-19.73 196.95-19.82 196.86-19.91 196.78-20 196.78-20.28 196.78-20.56 197.14-20.75L197.14-20.75 203.37-23.68Q203.66-23.83 203.73-23.83L203.73-23.83Q204.15-23.83 204.15-23.24L204.15-23.24 204.15-19.43Q204.22-19.19 204.35-19.19L204.35-19.19Q204.49-19.19 205.39-19.63L205.39-19.63Q207.49-20.68 209.62-21.66 211.74-22.63 213.13-22.63L213.13-22.63Q218.77-22.63 218.77-12.35L218.77-12.35 218.55-5.22 218.55-3.81Q218.55-1.9 220.46-1.32L220.46-1.32Q221.26-1.05 222.01-0.94 222.75-0.83 222.99-0.73 223.22-0.63 223.22-0.34 223.22-0.05 222.97 0L222.97 0 211.21 0Q210.96-0.05 210.96-0.34L210.96-0.34Q210.96-0.81 212.11-0.98L212.11-0.98Q214.72-1.34 214.72-4L214.72-4Q214.92-5.22 214.92-7.69ZM225.53-10.97Q225.53-15.77 228.94-19.23 232.35-22.68 237.11-22.68 241.87-22.68 245.38-19.32 248.9-15.97 248.9-11.04 248.9-6.1 245.57-2.72 242.23 0.66 237.2 0.66 232.17 0.66 228.85-2.76 225.53-6.18 225.53-10.97ZM231.61-4.69L231.61-4.69Q234.01-0.66 238.13-0.66L238.13-0.66Q241.33-0.66 243.03-3.22 244.72-5.79 244.72-9.52 244.72-13.26 242.34-17.19 239.96-21.12 235.93-21.12L235.93-21.12Q232.98-21.12 231.28-18.57 229.59-16.02 229.59-12.1 229.59-8.18 231.61-4.69ZM265.72-18.77L258.37-18.77Q258.22-18.77 258.22-18.55L258.22-18.55 258.22-5.08Q258.22-3.61 258.87-2.78 259.52-1.95 260.52-1.95 261.52-1.95 262.26-2.28 263.01-2.61 263.56-3 264.11-3.39 264.55-3.72 264.98-4.05 265.33-4.05 265.67-4.05 265.67-3.88L265.67-3.88Q265.67-3.3 265.55-3.13L265.55-3.13Q262.62 0.66 259.89 0.66 257.17 0.66 255.79-1.06 254.41-2.78 254.41-5.18L254.41-5.18 254.41-18.77 252.58-18.77Q251.9-18.77 251.86-19.21 251.83-19.65 252-19.78L252-19.78Q253.29-20.61 255.56-22.75L255.56-22.75Q255.8-23.02 256.22-23.56 256.64-24.1 257.43-25.02 258.22-25.95 258.64-25.95 259.05-25.95 259.05-25.61L259.05-25.61Q259.05-25.56 258.22-22.41L258.22-22.41Q258.22-21.97 258.61-21.95L258.61-21.95 264.84-21.95Q265.91-21.95 265.91-18.92L265.91-18.92Q265.91-18.77 265.72-18.77L265.72-18.77ZM286.32-12.87L272.16-12.87Q271.74-12.87 271.74-11.08L271.74-11.08Q271.74-7.3 273.99-4.74 276.24-2.17 279.57-2.17 282.9-2.17 285.98-5.05L285.98-5.05Q286.03-5.1 286.1-5.1L286.1-5.1 286.22-5.1Q286.37-5.1 286.5-4.87 286.64-4.64 286.76-4.57L286.76-4.57Q283.93-1.12 280.09 0.2L280.09 0.2Q278.78 0.66 277.12 0.66 275.46 0.66 273.75-0.26 272.04-1.17 270.82-2.66L270.82-2.66Q268.23-5.76 268.23-10.39 268.23-15.01 271.05-18.82 273.87-22.63 278.8-22.63L278.8-22.63Q282.34-22.63 284.59-19.47 286.83-16.31 286.83-13.92L286.83-13.92Q286.83-12.87 286.32-12.87L286.32-12.87ZM272.43-15.5L272.43-15.21Q272.43-14.75 272.87-14.75L272.87-14.75 282.07-14.75Q282.71-14.75 282.71-15.5L282.71-15.5Q282.71-17.26 281.13-19.1 279.56-20.95 277.68-20.95L277.68-20.95Q275.85-20.95 274.34-19.29 272.84-17.63 272.43-15.5L272.43-15.5ZM309.32-2.56L309.32-2.56Q305.95 0.66 301.75 0.66L301.75 0.66Q300.23 0.66 297.62 0.1L297.62 0.1Q297.21 0.1 297.17 0.39 297.13 0.68 297.11 1L297.11 1 297.11 11.43Q297.11 13.26 299.23 13.87L299.23 13.87Q300.16 14.11 300.97 14.22 301.77 14.33 302 14.43 302.24 14.53 302.24 14.81 302.24 15.09 301.99 15.14L301.99 15.14 289.76 15.14Q289.52 15.09 289.52 14.79L289.52 14.79Q289.52 14.36 290.66 14.21L290.66 14.21Q293.3 13.82 293.3 11.43L293.3 11.43 293.3-17.85Q293.3-18.87 292.18-19.26L292.18-19.26Q291.69-19.43 291.13-19.54 290.57-19.65 290.24-19.75 289.91-19.85 289.82-19.93 289.74-20.02 289.74-20.3 289.74-20.58 290.1-20.78L290.1-20.78 296.33-23.75Q296.52-23.85 296.72-23.85L296.72-23.85Q297.11-23.85 297.11-23.27L297.11-23.27 297.11-20.17Q297.11-19.9 297.39-19.9 297.67-19.9 298.74-20.61L298.74-20.61Q301.84-22.61 305.19-22.61L305.19-22.61Q307.53-22.61 309.49-20.7L309.49-20.7Q312.05-18.21 312.9-13.77L312.9-13.77Q313.15-12.5 313.15-11.07 313.15-9.64 312.68-8.06L312.68-8.06Q311.76-4.91 309.32-2.56ZM302.33-20.07L302.33-20.07Q299.01-20.07 297.11-18.16L297.11-18.16 297.11-4.44Q297.11-3.22 297.52-2.86L297.52-2.86Q298.6-1.93 300.82-1.42L300.82-1.42Q305.21-0.42 307.66-3.52L307.66-3.52Q309.39-5.74 309.39-8.89L309.39-8.89Q309.39-15.01 306.63-18.07L306.63-18.07Q304.97-19.92 302.33-20.07ZM332.63-4.03Q332.63-3.39 333.23-3.02 333.82-2.64 334.61-2.64 335.39-2.64 335.91-3.04 336.44-3.44 336.63-3.44 336.83-3.44 336.83-2.92 336.83-2.39 336.34-2.03L336.34-2.03Q332.68 0.66 331.38 0.66L331.38 0.66Q329.82 0.66 328.84-2.59L328.84-2.59Q328.77-2.83 328.72-2.81L328.72-2.81Q325.69-0.54 324.91-0.07L324.91-0.07Q322.91 1.07 320.9 0.29 318.88-0.49 317.98-2.29L317.98-2.29Q317.54-3.22 317.54-4.27L317.54-4.27Q317.54-6.35 319.08-7.57 320.62-8.79 324.94-9.91L324.94-9.91Q326.4-10.3 327.55-10.91 328.7-11.52 328.76-11.69 328.82-11.87 328.82-12.01L328.82-12.01 328.82-16.7Q328.82-19.46 326.67-20.58L326.67-20.58Q325.96-20.95 324.97-20.95 323.99-20.95 322.97-20.17 321.96-19.38 321.96-17.94L321.96-17.94 322.08-16.99Q321.94-16.7 320.32-16.02 318.71-15.33 318.47-15.28L318.47-15.28Q318.08-15.28 318.08-16.22 318.08-17.16 318.64-18.31 319.2-19.46 320.23-20.41L320.23-20.41Q322.62-22.63 325.69-22.63 328.77-22.63 330.7-20.94 332.63-19.24 332.63-16.89L332.63-16.89 332.63-4.03ZM321.37-4.74Q321.37-3.56 322.28-2.7 323.18-1.83 324.34-1.83 325.5-1.83 327.16-2.82 328.82-3.81 328.82-4.86L328.82-4.86 328.82-9.81Q328.82-10.08 328.7-10.08 328.58-10.08 328.53-10.06L328.53-10.06 322.86-7.42Q321.98-6.79 321.68-6.35 321.37-5.91 321.37-4.74ZM354.21-21.62Q355.28-21.24 355.53-21.24 355.77-21.24 355.83-21.25 355.89-21.26 355.99-21.56L355.99-21.56 355.99-34.16Q355.99-35.18 354.87-35.57L354.87-35.57Q354.38-35.74 353.82-35.85 353.26-35.96 352.93-36.06 352.6-36.16 352.51-36.24 352.43-36.33 352.43-36.61 352.43-36.89 352.79-37.08L352.79-37.08 359.02-40.01Q359.31-40.16 359.38-40.16L359.38-40.16Q359.8-40.16 359.8-39.58L359.8-39.58 359.8-4.81Q359.92-3.74 360.41-3.27 360.9-2.81 362-2.81L362-2.81 363.41-2.91Q363.56-2.91 363.56-2.62 363.56-2.34 363.19-2.17L363.19-2.17 356.7 0.51Q356.41 0.66 356.2 0.66 355.99 0.66 355.99 0.05L355.99 0.05 355.99-2.17Q355.99-2.42 355.87-2.42L355.87-2.42Q355.7-2.42 353.84-1.32L353.84-1.32Q348.15 2.05 344.25-0.32L344.25-0.32Q341.12-2.22 340.02-6.35L340.02-6.35Q339.51-8.28 339.51-10.44 339.51-12.6 340.4-14.73 341.29-16.87 342.86-18.48L342.86-18.48Q346.3-22 351.16-22L351.16-22Q353.13-22 354.21-21.62ZM343.2-11.15Q343.2-7.45 345.25-4.68 347.3-1.9 350.96-1.9L350.96-1.9Q352.57-1.9 354.28-2.7 355.99-3.49 355.99-3.91L355.99-3.91 355.99-16.5Q355.99-16.97 355.36-17.6L355.36-17.6Q353.4-20.29 350.17-20.29 346.93-20.29 345.06-17.57 343.2-14.84 343.2-11.15Z" opacity="1" transform="matrix(1,0,0,1,0,0)" fill="#000000" class="undefined-text-1" data-fill-palette-color="secondary" id="text-1"></path></svg></g></svg></g></svg></g></svg></g><g transform="matrix(1,0,0,1,155.09721316012264,0)"><svg viewBox="0 0 85.32557367975471 115.42702426446444" height="115.42702426446444" width="85.32557367975471"><g><svg xmlns="http://www.w3.org/2000/svg" xmlns:xlink="http://www.w3.org/1999/xlink" version="1.1" x="0" y="0" viewBox="13.408767700195312 0.44699978828430176 73.59123229980469 99.5530014038086" enable-background="new 0 0 100 100" xml:space="preserve" width="85.32557367975471" height="115.42702426446444" class="icon-icon-0" data-fill-palette-color="accent" id="icon-0"><g fill="#1c4b82" data-fill-palette-color="accent"><path d="M73.626 28H44.794l-1.808-4.202c0.841-1.525 1.419-3.164 1.723-4.919 1.473-8.569-4.298-16.731-12.861-18.205-0.889-0.153-1.794-0.227-2.688-0.227-7.688 0-14.214 5.511-15.519 13.101-0.714 4.15 0.231 8.331 2.661 11.771 1.376 1.947 3.174 3.509 5.19 4.64C17.593 32.292 15 36.545 15 41.412v45.336C15 94.108 20.928 100 28.29 100h36.472c0.645 0 1.262-0.209 1.715-0.666 0.176-0.178 0.312-0.361 0.424-0.58l18.785-18.915C86.458 79.436 87 78.649 87 77.718V41.412C87 34.049 80.989 28 73.626 28zM20 41.412c0-4.7 3.59-8.412 8.29-8.412h3.479l14.694 14.049C47.096 47.8 48 48.102 49 48.102v0.042c1 0 1.842-0.462 2.372-1.271 0.346-0.526 0.801-1.578 0.119-3.146L46.857 33h26.769C78.327 33 83 36.711 83 41.412v33.912l-7.059 0.052c-3.562 0.028-7.116 1.442-9.617 3.982-2.501 2.541-3.969 5.769-3.94 9.333L62.329 95H28.29c-4.7 0-8.29-3.555-8.29-8.252V41.412zM20.246 22.533c-1.687-2.386-2.343-5.287-1.848-8.166 0.906-5.266 5.431-9.088 10.761-9.088 0.622 0 1.251 0.054 1.87 0.16 5.94 1.022 9.943 6.691 8.922 12.633-0.266 1.534-0.831 2.955-1.678 4.221-0.455 0.679-0.535 1.541-0.215 2.292l5.558 13.006-10.362-9.978c-0.454-0.437-1.056-0.675-1.675-0.675-0.146 0-0.292 0.013-0.439 0.041-1.252 0.232-2.547 0.239-3.82 0.018C24.443 26.504 21.931 24.919 20.246 22.533z" fill="#000000" data-fill-palette-color="accent"></path><path d="M27.041 57h47.057c1.266 0 2.291-1.235 2.291-2.5S75.363 52 74.098 52H27.041c-1.265 0-2.29 1.235-2.29 2.5S25.776 57 27.041 57z" fill="#000000" data-fill-palette-color="accent"></path><path d="M27.041 70h47.057c1.266 0 2.291-1.235 2.291-2.5S75.363 65 74.098 65H27.041c-1.265 0-2.29 1.235-2.29 2.5S25.776 70 27.041 70z" fill="#000000" data-fill-palette-color="accent"></path><path d="M27.041 83h28.057c1.266 0 2.291-1.235 2.291-2.5S56.363 78 55.098 78H27.041c-1.265 0-2.29 1.235-2.29 2.5S25.776 83 27.041 83z" fill="#000000" data-fill-palette-color="accent"></path></g></svg></g></svg></g><g></g></svg></g><defs></defs></svg><rect width="395.52" height="235.5121417473825" fill="none" stroke="none" visibility="hidden"></rect></g></svg></g></svg>